# xmcd
#
# Track frame offsets:
#	150
#	17755
#	39335
#	71239
#	102712
#	123147
#	140161
#
# Disc length: 2131 seconds
#
# Revision: 0
# Processed by: cddbd v1.5PL3 Copyright (c) Steve Scherf et al.
# Submitted via: AudioConverter v4.2 Copyright (c) Dennis Rebentrost
#
DISCID=64085107
DTITLE=Lonnie Gordon - Everybody's Talking
DYEAR=1999
DGENRE=House
TTITLE0=Everybody's Talking (2 Tee's Radio Mix)
TTITLE1=Everybody's Talking (Radio Mix)
TTITLE2=Everybody's Talking (Tee's 'Fire In The Hole' Club Mix)
TTITLE3=Everybody's Talking (Tonester's Rhodeworks Dub) 
TTITLE4=Everybody's Talking (Trippy Mix)
TTITLE5=Everyboby's Talking (Country Honk Mix)
TTITLE6=Everybody's Talking (R&B Mix0
EXTD=
EXTT0=
EXTT1=
EXTT2=
EXTT3=
EXTT4=
EXTT5=
EXTT6=
PLAYORDER=
